<?xml version="1.0" encoding="utf-8"?>
<!-- Generator: Adobe Illustrator 25.4.1, SVG Export Plug-In . SVG Version: 6.00 Build 0)  -->
<svg version="1.1" id="Layer_1" xmlns="http://www.w3.org/2000/svg" xmlns:xlink="http://www.w3.org/1999/xlink" x="0px" y="0px"
	 viewBox="0 0 31.9 32" style="enable-background:new 0 0 31.9 32;" xml:space="preserve">
<style type="text/css">
	.st0{fill:url(#SVGID_1_);}
</style>
<linearGradient id="SVGID_1_" gradientUnits="userSpaceOnUse" x1="6.5965" y1="9.0367" x2="23.4006" y2="27.1616">
	<stop  offset="0" style="stop-color:#41D1FF"/>
	<stop  offset="1" style="stop-color:#BD34FE"/>
</linearGradient>
<path class="st0" d="M24.9,28.1L17.6,21v-4.3l4.7,4c0.7,0.6,1.7,0.5,2.3-0.2c0.6-0.7,0.5-1.7-0.2-2.3l-6.6-5.7
	c2.4-0.8,4.2-3,4.2-5.7c0-3.3-2.7-6-6-6s-6,2.7-6,6c0,2.7,1.8,4.9,4.2,5.7l-6.6,5.7c-0.7,0.6-0.8,1.6-0.2,2.3
	c0.3,0.4,0.8,0.6,1.2,0.6c0.4,0,0.7-0.1,1.1-0.4l4.7-4V21L7,28.1c-0.6,0.6-0.7,1.6,0,2.3c0.3,0.3,0.7,0.5,1.2,0.5
	c0.4,0,0.8-0.2,1.1-0.5l6.7-6.5l6.7,6.5c0.6,0.6,1.7,0.6,2.3,0C25.5,29.7,25.5,28.7,24.9,28.1z"/>
</svg>
